Input #0, mov,mp4,m4a,3gp,3g2,mj2, from '/home/hbattu/projects/huberman-gpt/huberman-audio/mp3/tmp7cvarqmx.mp4':
  Metadata:
    major_brand     : dash
    minor_version   : 0
    compatible_brands: iso6mp41
    creation_time   : 2021-03-09T05:42:46.000000Z
  Duration: 01:38:24.02, start: 0.000000, bitrate: 129 kb/s
    Stream #0:0(eng): Audio: aac (LC) (mp4a / 0x6134706D), 44100 Hz, stereo, fltp, 0 kb/s (default)
    Metadata:
      creation_time   : 2021-03-09T05:42:46.000000Z
      handler_name    : ISO Media file produced by Google Inc.
Stream mapping:
  Stream #0:0 -> #0:0 (aac (native) -> mp3 (libmp3lame))
Press [q] to stop, [?] for help
[graph_0_in_0_0 @ 0x56529b846240] tb:1/44100 samplefmt:fltp samplerate:44100 chlayout:0x3
Output #0, mp3, to '../huberman-audio/mp3/ntfcfJ28eiU.mp3':
  Metadata:
    major_brand     : dash
    minor_version   : 0
    compatible_brands: iso6mp41
    TSSE            : Lavf58.29.100
    Stream #0:0(eng): Audio: mp3 (libmp3lame), 44100 Hz, stereo, fltp, delay 1105 (default)
    Metadata:
      creation_time   : 2021-03-09T05:42:46.000000Z
      handler_name    : ISO Media file produced by Google Inc.
      encoder         : Lavc58.54.100 libmp3lame
No more output streams to write to, finishing.
size=   92251kB time=01:38:24.04 bitrate= 128.0kbits/s speed=85.6x    
[AVIOContext @ 0x56529b739900] Statistics: 0 seeks, 138 writeouts
video:0kB audio:92251kB subtitle:0kB other streams:0kB global headers:0kB muxing overhead: 0.000366%
Input file #0 (/home/hbattu/projects/huberman-gpt/huberman-audio/mp3/tmp7cvarqmx.mp4):
  Input stream #0:0 (audio): 254265 packets read (94464348 bytes); 254265 frames decoded (260367360 samples); 
  Total: 254265 packets (94464348 bytes) demuxed
Output file #0 (../huberman-audio/mp3/ntfcfJ28eiU.mp3):
  Output stream #0:0 (audio): 226014 frames encoded (260367360 samples); 226015 packets muxed (94465044 bytes); 
  Total: 226015 packets (94465044 bytes) muxed
[AVIOContext @ 0x56529b75e800] Statistics: 2 seeks, 362 writeouts
[AVIOContext @ 0x56529b742880] Statistics: 95550744 bytes read, 0 seeks
